<?xml version="1.0" encoding="utf-8"?>
<!-- Generator: Adobe Illustrator 16.0.0, SVG Export Plug-In . SVG Version: 6.00 Build 0)  -->
<!DOCTYPE svg PUBLIC "-//W3C//DTD SVG 1.1//EN" "http://www.w3.org/Graphics/SVG/1.1/DTD/svg11.dtd">
<svg version="1.1" id="Layer_1" xmlns="http://www.w3.org/2000/svg" xmlns:xlink="http://www.w3.org/1999/xlink" x="0px" y="0px"
	 width="1480px" height="1416px" viewBox="0 0 1480 1416" enable-background="new 0 0 1480 1416" xml:space="preserve">
<path fill="#F05133" d="M1341.738,668.538L779.462,106.262c-21.791-21.793-57.125-21.793-78.924,0.006l-87.07,87.064L793.887,373.75
	c29.393-6.888,61.542,1.031,84.463,23.945c35.243,35.243,35.243,92.389,0,127.632c-35.243,35.244-92.389,35.244-127.625,0
	c-22.921-22.914-30.84-55.076-23.952-84.47L546.36,260.445L138.262,668.544c-21.793,21.785-21.793,57.125,0,78.916l562.276,562.275
	c21.799,21.8,57.133,21.792,78.918,0l90.695-90.688L549.558,898.446l59.856-59.863l320.601,320.594l100.651-100.645L710.065,737.932
	l59.863-59.859l320.601,320.598l100.644-100.651L870.579,577.421l59.87-59.863l320.594,320.598l90.695-90.695
	C1363.531,725.669,1363.531,690.329,1341.738,668.538z M557.327,846.353c-35.249,35.243-92.395,35.238-127.639,0
	c-35.242-35.25-35.235-92.389,0-127.629c35.25-35.243,92.39-35.243,127.639,0C592.571,753.964,592.571,811.109,557.327,846.353z
	 M717.836,685.841c-35.243,35.244-92.389,35.244-127.626,0c-35.25-35.248-35.242-92.388,0-127.631
	c35.243-35.244,92.383-35.244,127.626,0C753.078,593.453,753.078,650.599,717.836,685.841z"/>
<path fill="#FFFFFF" d="M590.21,558.21c-35.242,35.243-35.25,92.383,0,127.631c35.237,35.244,92.383,35.244,127.626,0
	c35.242-35.242,35.242-92.388,0-127.631C682.593,522.966,625.453,522.966,590.21,558.21z"/>
<rect x="673.599" y="825.971" transform="matrix(-0.7071 -0.7071 0.7071 -0.7071 922.9224 2118.8887)" fill="#FFFFFF" width="453.398" height="84.659"/>
<path fill="#FFFFFF" d="M878.35,397.695c-22.921-22.914-55.07-30.833-84.463-23.945L613.468,193.332l-67.107,67.113l180.412,180.412
	c-6.888,29.394,1.031,61.556,23.952,84.47c35.236,35.244,92.382,35.244,127.625,0C913.593,490.084,913.593,432.938,878.35,397.695z"
	/>
<polygon fill="#FFFFFF" points="870.579,577.421 1191.173,898.019 1251.043,838.155 930.449,517.558 "/>
<path fill="#FFFFFF" d="M429.688,718.724c-35.235,35.24-35.242,92.379,0,127.629c35.244,35.238,92.39,35.243,127.639,0
	c35.244-35.243,35.244-92.389,0-127.629C522.078,683.48,464.938,683.48,429.688,718.724z"/>
<polygon fill="#FFFFFF" points="549.558,898.446 870.151,1219.047 930.015,1159.177 609.414,838.583 "/>
</svg>
